<mxfile host="Electron" modified="2024-09-09T10:34:08.036Z" agent="Mozilla/5.0 (Windows NT 10.0; Win64; x64) AppleWebKit/537.36 (KHTML, like Gecko) draw.io/24.2.5 Chrome/120.0.6099.109 Electron/28.1.0 Safari/537.36" etag="Zw0zsbobE_fT7om8UYxg" version="24.2.5" type="device">
  <diagram name="Page-1" id="4CO1C59BV15vy3zIfap3">
    <mxGraphModel dx="1077" dy="641" grid="1" gridSize="10" guides="1" tooltips="1" connect="1" arrows="1" fold="1" page="1" pageScale="1" pageWidth="827" pageHeight="1169" math="0" shadow="0">
      <root>
        <mxCell id="0" />
        <mxCell id="1" parent="0" />
        <mxCell id="Linn67XVmF4-wbtycEwz-8" value="ArduinoCLIUtilizer" style="shape=umlFrame;whiteSpace=wrap;html=1;pointerEvents=0;recursiveResize=0;container=1;collapsible=0;width=160;" parent="1" vertex="1">
          <mxGeometry x="120" y="120" width="210" height="180" as="geometry" />
        </mxCell>
        <mxCell id="Linn67XVmF4-wbtycEwz-1" value="Arduino-CLI" style="html=1;whiteSpace=wrap;" parent="1" vertex="1">
          <mxGeometry x="200" y="350" width="80" height="40" as="geometry" />
        </mxCell>
        <mxCell id="Linn67XVmF4-wbtycEwz-2" value="ProcessBuilder" style="html=1;whiteSpace=wrap;" parent="1" vertex="1">
          <mxGeometry x="350" y="300" width="100" height="40" as="geometry" />
        </mxCell>
        <mxCell id="Linn67XVmF4-wbtycEwz-4" value="Funktionale Klassen" style="html=1;whiteSpace=wrap;" parent="1" vertex="1">
          <mxGeometry x="180" y="240" width="120" height="40" as="geometry" />
        </mxCell>
        <mxCell id="Linn67XVmF4-wbtycEwz-6" value="Klassen für Interaktion über GUI" style="html=1;whiteSpace=wrap;" parent="1" vertex="1">
          <mxGeometry x="180" y="160" width="120" height="50" as="geometry" />
        </mxCell>
        <mxCell id="Linn67XVmF4-wbtycEwz-9" value="Andere Projekte und Plug-Ins" style="shape=umlFrame;whiteSpace=wrap;html=1;pointerEvents=0;recursiveResize=0;container=1;collapsible=0;width=180;height=30;" parent="1" vertex="1">
          <mxGeometry x="400" y="120" width="220" height="80" as="geometry" />
        </mxCell>
        <mxCell id="Linn67XVmF4-wbtycEwz-13" value="Eclipse-IDE" style="html=1;whiteSpace=wrap;" parent="1" vertex="1">
          <mxGeometry x="230" y="50" width="120" height="40" as="geometry" />
        </mxCell>
        <mxCell id="Linn67XVmF4-wbtycEwz-15" value="" style="endArrow=open;endSize=12;dashed=1;html=1;rounded=0;" parent="1" source="Linn67XVmF4-wbtycEwz-4" target="Linn67XVmF4-wbtycEwz-1" edge="1">
          <mxGeometry width="160" relative="1" as="geometry">
            <mxPoint x="290" y="280" as="sourcePoint" />
            <mxPoint x="450" y="280" as="targetPoint" />
          </mxGeometry>
        </mxCell>
        <mxCell id="Linn67XVmF4-wbtycEwz-17" value="" style="endArrow=open;endSize=12;dashed=1;html=1;rounded=0;" parent="1" source="Linn67XVmF4-wbtycEwz-9" target="Linn67XVmF4-wbtycEwz-6" edge="1">
          <mxGeometry width="160" relative="1" as="geometry">
            <mxPoint x="260" y="300" as="sourcePoint" />
            <mxPoint x="260" y="340" as="targetPoint" />
          </mxGeometry>
        </mxCell>
        <mxCell id="Linn67XVmF4-wbtycEwz-18" value="" style="endArrow=open;endSize=12;dashed=1;html=1;rounded=0;entryX=1;entryY=0;entryDx=0;entryDy=0;exitX=0.002;exitY=1;exitDx=0;exitDy=0;exitPerimeter=0;" parent="1" source="Linn67XVmF4-wbtycEwz-9" target="Linn67XVmF4-wbtycEwz-4" edge="1">
          <mxGeometry width="160" relative="1" as="geometry">
            <mxPoint x="380" y="260" as="sourcePoint" />
            <mxPoint x="270" y="350" as="targetPoint" />
          </mxGeometry>
        </mxCell>
        <mxCell id="Linn67XVmF4-wbtycEwz-19" value="" style="endArrow=open;endSize=12;dashed=1;html=1;rounded=0;exitX=0.5;exitY=1;exitDx=0;exitDy=0;" parent="1" source="Linn67XVmF4-wbtycEwz-13" edge="1">
          <mxGeometry width="160" relative="1" as="geometry">
            <mxPoint x="290" y="100" as="sourcePoint" />
            <mxPoint x="290" y="160" as="targetPoint" />
          </mxGeometry>
        </mxCell>
        <mxCell id="xOemWs57V-3R-9eeZz0L-1" value="" style="endArrow=open;endSize=12;dashed=1;html=1;rounded=0;" parent="1" source="Linn67XVmF4-wbtycEwz-6" target="Linn67XVmF4-wbtycEwz-4" edge="1">
          <mxGeometry width="160" relative="1" as="geometry">
            <mxPoint x="239.83" y="210" as="sourcePoint" />
            <mxPoint x="239.83" y="240" as="targetPoint" />
          </mxGeometry>
        </mxCell>
        <mxCell id="vRncIcG1lG44Y-0Wb828-3" value="" style="endArrow=none;dashed=1;html=1;dashPattern=1 3;strokeWidth=2;rounded=0;entryX=0;entryY=0.5;entryDx=0;entryDy=0;" edge="1" parent="1" target="Linn67XVmF4-wbtycEwz-2">
          <mxGeometry width="50" height="50" relative="1" as="geometry">
            <mxPoint x="240" y="320" as="sourcePoint" />
            <mxPoint x="340" y="280" as="targetPoint" />
          </mxGeometry>
        </mxCell>
      </root>
    </mxGraphModel>
  </diagram>
</mxfile>
